PathFileType	4	(X/Y/Z)	/Users/itak/Documents/Research/Walk-IL/dataset/trc/00295_00010.trc
DataRate	CameraRate	NumFrames	NumMarkers	Units	OrigDataRate	OrigDataStartFrame	OrigNumFrames
100.000000	100.000000	4	54	mm	100.000000	165	661
Frame#	Time	RPSI			LPSI			L3			STRN			T10			C7			CLAV			RBAK			LBAK			LSHO			LUPA			LAEL			LAOL			LWTS			LWPS			LFRA			LHPS			RSHO			RUPA			RAEL			RAOL			RWTS			RWPS			RFRA			RIFD			RHTS			RHPS			RBHD			LFHD			RFHD			LBHD			LHIP			RHIP			RASI			LASI			LKNE			LTHI			LANK			LTIP			LTOE			LMT1			LMT5			LHEE			RKNE			RTHI			RANK			RTIP			RTOE			RMT1			RMT5			RHEE			LIFD			LHTS			*53			
		X1	Y1	Z1	X2	Y2	Z2	X3	Y3	Z3	X4	Y4	Z4	X5	Y5	Z5	X6	Y6	Z6	X7	Y7	Z7	X8	Y8	Z8	X9	Y9	Z9	X10	Y10	Z10	X11	Y11	Z11	X12	Y12	Z12	X13	Y13	Z13	X14	Y14	Z14	X15	Y15	Z15	X16	Y16	Z16	X17	Y17	Z17	X18	Y18	Z18	X19	Y19	Z19	X20	Y20	Z20	X21	Y21	Z21	X22	Y22	Z22	X23	Y23	Z23	X24	Y24	Z24	X25	Y25	Z25	X26	Y26	Z26	X27	Y27	Z27	X28	Y28	Z28	X29	Y29	Z29	X30	Y30	Z30	X31	Y31	Z31	X32	Y32	Z32	X33	Y33	Z33	X34	Y34	Z34	X35	Y35	Z35	X36	Y36	Z36	X37	Y37	Z37	X38	Y38	Z38	X39	Y39	Z39	X40	Y40	Z40	X41	Y41	Z41	X42	Y42	Z42	X43	Y43	Z43	X44	Y44	Z44	X45	Y45	Z45	X46	Y46	Z46	X47	Y47	Z47	X48	Y48	Z48	X49	Y49	Z49	X50	Y50	Z50	X51	Y51	Z51	X52	Y52	Z52	X53	Y53	Z53	X54	Y54	Z54	

166	1.65	-403.1619567871094	975.8097534179688	728.1495971679688	-546.375244140625	961.375732421875	826.5820922851562	-477.6331787109375	1045.72412109375	761.4053955078125	-641.2837524414062	1216.830810546875	566.131103515625	-463.5058288574219	1160.958984375	767.7498168945312	-512.579345703125	1403.124877929688	740.2642822265625	-605.4700927734375	1315.738647460938	618.4880981445312	-412.3432312011719	1271.220703125	733.6710205078125	-579.855224609375	1364.944946289062	818.1510620117188	-680.450927734375	1367.933959960938	784.7986450195312	-695.843505859375	1259.65576171875	871.3387451171875	-662.1171264648438	1065.221923828125	915.8341064453125	-576.8963012695312	1066.870483398438	901.4682006835938	-643.2454833984375	825.6326904296875	890.0535888671875	-648.781494140625	828.9577026367188	959.8336181640625	-654.5816650390625	962.8612670898438	941.9710693359375	-623.50439453125	746.4796142578125	978.9407348632812	-434.1653747558594	1380.466430664062	587.6880493164062	-382.11962890625	1320.31640625	543.5733032226562	-379.3902587890625	1056.681640625	466.273193359375	-399.6739501953125	1036.336791992188	556.5311279296875	-598.9503173828125	948.0845947265625	424.6014404296875	-542.486572265625	909.5628051757812	374.2210083007812	-425.4285278320312	1011.826721191406	430.9936828613281	-721.572021484375	815.0980834960938	380.7937316894531	-684.4232788085938	881.4030151367188	371.0757751464844	-631.3136596679688	843.5300903320312	343.4215087890625	-478.8117980957031	1551.8037109375	708.4381103515625	-649.6012573242188	1605.821533203125	593.0570678710938	-562.8092041015625	1600.061279296875	561.1256103515625	-616.1447143554688	1550.873657226562	758.2892456054688	-667.654296875	917.53125	818.1348266601562	-372.975830078125	929.3336791992188	584.7946166992188	-497.5083312988281	932.7534790039062	525.422119140625	-698.8406982421875	935.2286987304688	677.408447265625	-797.6962890625	502.8460388183594	623.7237548828125	-772.1183471679688	625.0150756835938	688.8626708984375	-893.9683837890625	53.90695953369141	598.471435546875	-855.1725463867188	281.3175048828125	613.1898193359375	-858.8843383789062	105.4974899291992	397.0811157226562	-814.1524047851562	66.01383972167969	451.337890625	-921.111572265625	84.44542694091797	482.8751831054688	-832.3966064453125	32.99373245239258	634.8512573242188	-427.3625183105469	456.6510620117188	639.7985229492188	-416.8988952636719	711.7367553710938	558.9755859375	-334.1519775390625	49.90875625610352	799.9494018554688	-436.9590148925781	331.5240173339844	677.3305053710938	-532.9414672851562	44.50158309936523	765.1605834960938	-496.2616577148438	37.69672393798828	825.1474609375	-420.8252868652344	41.81191635131836	737.0390014648438	-306.6033935546875	47.05624771118164	865.8869018554688	-588.5780639648438	653.3016357421875	938.4185180664062	-639.3911743164062	724.5217895507812	918.1593627929688	nan	nan	nan	
167	1.66	-410.8828125	974.4021606445312	723.0537719726562	-555.083740234375	959.9552612304688	820.2447509765625	-485.5393676757812	1043.721557617188	755.7408447265625	-647.400146484375	1215.34619140625	559.8279418945312	-471.2951354980469	1158.995971679688	762.6367797851562	-519.9807739257812	1401.47998046875	735.3457641601562	-612.0739135742188	1314.220703125	612.596435546875	-419.7553405761719	1269.369018554688	729.4440307617188	-587.7799682617188	1363.058837890625	812.701904296875	-688.23828125	1366.068359375	778.6064453125	-704.1126708984375	1257.629638671875	864.827880859375	-670.5221557617188	1063.175659179688	909.4669799804688	-585.2533569335938	1064.89794921875	895.6015625	-650.7716674804688	823.6146850585938	884.2242431640625	-656.8341064453125	827.091796875	953.9495239257812	-662.950439453125	960.8977661132812	935.7811889648438	-631.3324584960938	744.7049560546875	973.4196166992188	-440.2715759277344	1378.781005859375	583.3389892578125	-387.7980041503906	1318.524047851562	539.7272338867188	-384.126220703125	1054.6484375	463.2289428710938	-405.0028991699219	1034.621704101562	553.4623413085938	-603.8408813476562	946.7113037109375	420.9364318847656	-547.4486083984375	907.903564453125	370.7271118164062	-430.0986633300781	1009.845031738281	427.8357543945312	-726.7964477539062	813.9417114257812	377.7312316894531	-689.4630126953125	880.0797729492188	367.66064453125	-636.4052124023438	841.9048461914062	340.1669616699219	-486.1939392089844	1550.765380859375	703.4850463867188	-655.9716186523438	1603.877197265625	586.1507568359375	-568.867431640625	1598.200805664062	555.1058349609375	-624.05810546875	1549.71044921875	751.9278564453125	-676.30029296875	916.0128784179688	810.7879028320312	-379.58642578125	927.601806640625	580.1217651367188	-503.3865661621094	930.91845703125	519.2615356445312	-706.08056640625	933.4938354492188	669.615966796875	-803.737548828125	501.3998107910156	615.154052734375	-778.3336791992188	623.4815063476562	680.026123046875	-896.4335327148438	51.62154769897461	594.8593139648438	-859.4126586914062	279.28173828125	606.4019775390625	-859.2646484375	99.37184143066406	393.0938415527344	-814.6369018554688	61.83061218261719	448.5027770996094	-922.0516357421875	78.9400634765625	478.2489013671875	-834.8642578125	32.66183090209961	632.28271484375	-431.3497009277344	455.4397277832031	637.0069580078125	-421.9590454101562	710.0203247070312	554.7918090820312	-334.6398315429688	50.8623046875	801.0362548828125	-439.8812866210938	330.497314453125	675.365966796875	-533.0177001953125	44.53598403930664	765.0553588867188	-496.6910400390625	37.89995574951172	825.1836547851562	-420.7880859375	42.15266799926758	737.52294921875	-307.5504455566406	48.84295654296875	867.1171875	-595.7415771484375	651.6986083984375	933.5383911132812	-646.7244262695312	722.5834350585938	912.6179809570312	nan	nan	nan	
168	1.67	-418.5609741210938	973.2423706054688	717.6672973632812	-563.6957397460938	958.9449462890625	813.7275390625	-493.5394592285156	1041.8720703125	749.8350830078125	-653.541015625	1214.015747070312	553.45947265625	-479.1638488769531	1157.086547851562	757.3616943359375	-527.422607421875	1400.00341796875	730.421875	-618.70703125	1312.866455078125	606.6394653320312	-427.2781066894531	1267.590454101562	725.1771850585938	-595.742431640625	1361.259155273438	807.2533569335938	-696.0703735351562	1364.29052734375	772.3842163085938	-712.43994140625	1255.596801757812	858.2379150390625	-679.1836547851562	1061.037231445312	902.922607421875	-593.8449096679688	1062.797729492188	889.60986328125	-658.6371459960938	821.5380859375	878.0130004882812	-665.3667602539062	825.1442260742188	947.6990356445312	-671.6739501953125	958.8474731445312	929.3391723632812	-639.7005004882812	742.7958374023438	967.4827880859375	-446.3322448730469	1377.22607421875	578.9810791015625	-393.4185180664062	1316.833618164062	535.9451293945312	-388.6989135742188	1052.674560546875	460.3228149414062	-410.2953491210938	1032.985229492188	550.5032958984375	-608.3641967773438	944.9972534179688	417.2693176269531	-551.92626953125	905.9785766601562	367.2895812988281	-434.5121765136719	1007.836853027344	424.7815551757812	-731.3862915039062	812.234619140625	374.58251953125	-693.9509887695312	878.2672119140625	364.1874694824219	-640.8764038085938	839.8700561523438	336.9107666015625	-493.5713806152344	1549.970581054688	698.4595336914062	-662.3128662109375	1602.124877929688	579.1414184570312	-574.8865966796875	1596.489379882812	548.9896850585938	-631.9827270507812	1548.851928710938	745.4810791015625	-684.8329467773438	914.7985229492188	803.4158935546875	-386.2682189941406	925.92724609375	575.1934814453125	-509.3793029785156	929.1243286132812	512.9590454101562	-713.3667602539062	931.8645629882812	661.8109130859375	-809.6229858398438	500.1255493164062	606.5648193359375	-784.493408203125	622.0795288085938	671.41015625	-898.4547119140625	49.6033821105957	591.9845581054688	-863.38427734375	277.513427734375	599.8286743164062	-858.7861938476562	92.79974365234375	389.8159790039062	-814.343994140625	57.51419067382812	446.5726928710938	-922.2326049804688	73.06619262695312	474.2106018066406	-836.9354248046875	32.7881965637207	630.5869140625	-435.6103515625	454.3479614257812	634.1027221679688	-427.191650390625	708.3850708007812	550.4965209960938	-335.2556457519531	52.1167106628418	802.1026611328125	-442.9684143066406	329.6119689941406	673.2760009765625	-533.1455078125	44.57681274414062	764.9495849609375	-497.1973571777344	38.13078689575195	825.2324829101562	-420.8110656738281	42.57168197631836	737.9833984375	-308.5861511230469	51.06505584716797	868.3468017578125	-603.52099609375	649.985595703125	928.2313232421875	-654.5721435546875	720.5972900390625	906.6463623046875	nan	nan	nan	
169	1.68	-426.1524353027344	972.3756713867188	711.9805297851562	-572.1288452148438	958.4449462890625	807.0420532226562	-501.5790405273438	1040.264892578125	743.6807250976562	-659.6873779296875	1212.914184570312	547.0208740234375	-487.0884399414062	1155.336303710938	751.9172973632812	-534.9014892578125	1398.765625	725.4755859375	-625.3564453125	1311.745483398438	600.6104736328125	-434.8917541503906	1265.988159179688	720.8561401367188	-603.7355346679688	1359.620849609375	801.7906494140625	-703.9343872070312	1362.667358398438	766.1193237304688	-720.8124389648438	1253.61328125	851.5543823242188	-688.0916748046875	1058.859375	896.1841430664062	-602.6771850585938	1060.61328125	883.4462280273438	-666.8538208007812	819.4618530273438	871.415771484375	-674.368896484375	823.1791381835938	941.0703125	-680.7365112304688	956.7680053710938	922.625732421875	-648.6249389648438	740.8358154296875	961.1358032226562	-452.345947265625	1375.899658203125	574.6009521484375	-398.9786987304688	1315.341064453125	532.2218017578125	-393.1348266601562	1050.847778320312	457.5693054199219	-415.6105041503906	1031.512939453125	547.6514282226562	-612.4912109375	942.9566650390625	413.5873413085938	-555.8733520507812	903.7965698242188	363.9281921386719	-438.6729125976562	1005.870300292969	421.8435974121094	-735.3084106445312	809.991943359375	371.2919921875	-697.8382568359375	875.969970703125	360.61669921875	-644.6664428710938	837.4244384765625	333.6548767089844	-500.9531860351562	1549.492553710938	693.3600463867188	-668.60400390625	1600.63623046875	572.0122680664062	-580.8564453125	1594.99365234375	542.7766723632812	-639.9208984375	1548.375732421875	738.9384765625	-693.1975708007812	914.0411987304688	796.0433349609375	-392.9623413085938	924.36767578125	569.991943359375	-515.467529296875	927.4495849609375	506.5263061523438	-720.675048828125	930.473388671875	654.0231323242188	-815.3928833007812	499.1685180664062	597.9991455078125	-790.6485595703125	620.968505859375	663.045166015625	-900.1065063476562	47.96179580688477	589.6980590820312	-867.1875610351562	276.1246948242188	593.4647216796875	-857.7831420898438	86.25926971435547	387.1321716308594	-813.5730590820312	53.37640762329102	445.3103332519531	-921.9020385742188	67.2508544921875	470.7344360351562	-838.6843872070312	33.30080032348633	629.4918823242188	-440.1763000488281	453.4273986816406	631.0097045898438	-432.6216430664062	706.8875732421875	546.0564575195312	-335.9927978515625	53.72897720336914	803.0404663085938	-446.2591552734375	328.90576171875	670.980712890625	-533.328857421875	44.61733627319336	764.8468017578125	-497.7588806152344	38.37256240844727	825.2841796875	-420.92919921875	43.06958770751953	738.360595703125	-309.6848754882812	53.80540466308594	869.4652099609375	-611.9396362304688	648.1988525390625	922.4697265625	-662.9453125	718.615966796875	900.2500610351562	nan	nan	nan	
